<?xml version="1.0" encoding="UTF-8"?>
<svg xmlns="http://www.w3.org/2000/svg" viewBox="0 0 341 341" role="img" aria-labelledby="title">
  <title id="title">Cryptfloe narwhal favicon</title>
  <style>
    #cryptfloe-mark {
      fill: #0A1020;
    }

    @media (prefers-color-scheme: dark) {
      #cryptfloe-mark {
        fill: #FFFFFF;
      }
    }
  </style>
  <g transform="translate(10 0)">
  <g id="cryptfloe-mark" fill="#0A1020">
    <path d="M0 0 C-3.769 4.232 -8.389 7.122 -13.062 10.25 C-14.79 11.418 -16.516 12.587 -18.242 13.758 C-19.069 14.319 -19.897 14.88 -20.749 15.458 C-23.433 17.297 -26.068 19.195 -28.688 21.125 C-34.266 25.233 -39.983 29.128 -45.703 33.035 C-48.736 35.116 -51.742 37.232 -54.734 39.371 C-55.51 39.924 -56.285 40.478 -57.083 41.048 C-58.589 42.125 -60.092 43.207 -61.592 44.292 C-66.78 48 -66.78 48 -69 48 C-68.691 45.229 -68.378 42.458 -68.062 39.688 C-67.975 38.916 -67.975 38.916 -67.535 35.012 C-67 31 -67 31 -66 28 C-63.745 26.672 -63.745 26.672 -60.727 25.32 C-59.604 24.81 -58.481 24.299 -57.324 23.773 C-56.104 23.229 -54.883 22.685 -53.625 22.125 C-51.073 20.967 -48.523 19.806 -45.973 18.645 C-44.658 18.047 -43.343 17.45 -41.989 16.834 C-34.48 13.381 -27.054 9.754 -19.622 6.139 C-19.092 5.882 -19.092 5.882 -16.41 4.582 C-15.483 4.131 -14.557 3.679 -13.602 3.214 C-8.776 0.962 -5.393 -0.251 0 0 Z " transform="translate(311,10)"/>
    <path d="M0 0 C0.342 6.957 0.298 13.712 -3 20 C-9.716 26.813 -18.513 31.694 -27 36 C-27.33 36 -27.66 36 -28 36 C-27.81 32.62 -27.582 29.252 -27.289 25.879 C-27 22 -27 22 -27.086 18.715 C-26.985 15.168 -26.718 13.131 -25 10 C-19.646 6.168 -14.052 3.549 -8 1 C-7.058 0.569 -6.115 0.139 -5.145 -0.305 C-3 -1 -3 -1 0 0 Z " transform="translate(235,46)"/>
    <path d="M0 0 C0.33 0.165 0.33 0.165 2 1 C1.784 5.174 1.464 9.334 1.125 13.5 C1.095 14.087 1.095 14.087 0.945 17.055 C0.175 25.624 0.175 25.624 -3.065 29.418 C-5.618 31.482 -8.221 33.257 -11 35 C-12.473 36.057 -13.942 37.119 -15.406 38.188 C-16.757 39.116 -18.108 40.044 -19.5 41 C-20.201 41.489 -20.903 41.977 -21.625 42.48 C-26.751 46 -26.751 46 -29 46 C-29.083 47.423 -29.165 48.846 -29.25 50.312 C-31.162 68.882 -43.442 83.006 -57.383 94.395 C-64.539 99.549 -72.282 103.753 -80 108 C-78.229 108 -76.456 107.967 -74.688 107.859 C-63.034 107.385 -53.824 111.516 -45 119 C-39.433 124.442 -34.771 130.188 -31 137 C-31 137.66 -31 138.32 -31 139 C-43.02 145.326 -55.248 147.416 -68.5 143.375 C-75.675 140.616 -81.673 136.49 -86 130 C-86 129.34 -86 128.68 -86 128 C-86.66 128 -87.32 128 -88 128 C-88.124 128.33 -88.124 128.33 -88.75 130 C-90 133 -90 133 -91.938 136.625 C-98.198 149.905 -98.452 162.318 -94.32 176.359 C-88.099 193.514 -74.994 205.92 -59.059 214.164 C-52.862 216.967 -46.66 218.696 -40 220 C-39.268 220.144 -39.268 220.144 -35.562 220.875 C-30.522 219.637 -28.96 216.696 -25.984 212.602 C-18.026 202.167 -3.608 196.727 9 195 C18.486 194.286 26.926 195.161 36 198 C37.292 203.167 36.002 204.881 33.574 209.41 C26.89 220.406 16.988 226.844 5 231 C3.338 231.358 1.673 231.698 0 232 C0.617 232.34 1.235 232.681 1.871 233.031 C14.356 240.176 25.068 250.082 30 264 C18.33 269.225 4.147 267.163 -7.688 263.375 C-17.874 259.333 -26.404 252.233 -31.875 242.75 C-33 240 -33 240 -33 237 C-33.516 237.072 -33.516 237.072 -36.129 237.438 C-74.027 242.246 -111.822 237.087 -142.875 213.375 C-166.004 194.284 -182.864 168.34 -186 138 C-187.563 105.64 -181.231 75.823 -159 51 C-158.526 50.402 -158.526 50.402 -156.125 47.375 C-151.811 42.716 -147.016 38.876 -142 35 C-141.615 34.695 -141.615 34.695 -139.664 33.152 C-122.551 20.332 -100.959 13.565 -79.688 13.688 C-79.186 13.69 -79.186 13.69 -76.649 13.7 C-65.545 13.868 -55.662 15.901 -45.5 20.426 C-39.531 21.797 -33.538 17.336 -28.391 14.613 C-26.733 13.749 -25.076 12.885 -23.418 12.021 C-20.82 10.661 -18.224 9.299 -15.629 7.932 C-13.116 6.611 -10.597 5.299 -8.078 3.988 C-7.298 3.574 -6.518 3.159 -5.714 2.732 C-3.84 1.76 -1.923 0.871 0 0 Z M-70 46 C-70.812 48.438 -70.812 48.438 -71 51 C-69 55 -69 55 -67 56 C-63.562 56.312 -63.562 56.312 -60 56 C-57 52 -57 52 -57.125 48.375 C-58 45 -58 45 -61 43 C-65.722 42.508 -66.5 42.5 -70 46 Z " transform="translate(198,62)"/>
  </g>
  </g>
</svg>
